<svg width="12" height="7" viewBox="0 0 12 7" fill="none" xmlns="http://www.w3.org/2000/svg">
<path d="M10.9274 0.990533L10.5942 0.655036C10.4893 0.55026 10.3498 0.492538 10.2007 0.492538C10.0517 0.492538 9.91205 0.55026 9.80719 0.655036L6.00649 4.4559L2.2014 0.650818C2.09671 0.546042 1.95703 0.488403 1.80802 0.488403C1.659 0.488403 1.51924 0.546042 1.41447 0.650818L1.0812 0.984248C0.864209 1.20108 0.864209 1.55427 1.0812 1.7711L5.61161 6.3178C5.71631 6.4225 5.85581 6.49626 6.00616 6.49626H6.00789C6.15699 6.49626 6.2965 6.42241 6.40119 6.3178L10.9274 1.78342C11.0322 1.67873 11.0898 1.535 11.09 1.38598C11.09 1.23688 11.0322 1.09514 10.9274 0.990533Z" fill="black"/>
</svg>
