<svg width="10" height="10" viewBox="0 0 10 10" fill="none" xmlns="http://www.w3.org/2000/svg">
<path d="M4.89749 0.324829C2.37663 0.324829 0.325928 2.37553 0.325928 4.89639C0.325928 7.41725 2.37663 9.46795 4.89749 9.46795C7.41835 9.46795 9.46905 7.41725 9.46905 4.89639C9.46905 2.37553 7.41835 0.324829 4.89749 0.324829ZM7.07166 7.261C6.99737 7.33529 6.89985 7.37268 6.80233 7.37268C6.70481 7.37268 6.60722 7.33529 6.533 7.261L4.62816 5.35623C4.55652 5.28501 4.51655 5.18818 4.51655 5.0869V2.61061C4.51655 2.39995 4.68717 2.22967 4.89749 2.22967C5.10781 2.22967 5.27843 2.39995 5.27843 2.61061V4.92918L7.07166 6.72234C7.22059 6.87134 7.22059 7.11207 7.07166 7.261Z" fill="#3D3D3D"/>
</svg>
