<svg width="10" height="10" viewBox="0 0 10 10" fill="none" xmlns="http://www.w3.org/2000/svg">
<path d="M8.29931 8.25299C9.64737 6.6981 9.48194 4.35331 7.96102 2.99243C8.74222 5.7299 6.67652 8.46437 3.83049 8.46437C3.7757 8.46437 4.10635 8.4663 2.80396 8.45826C3.51628 9.16726 4.46502 9.55368 5.45546 9.55368C5.45803 9.55368 8.94567 9.53584 8.94772 9.53582C9.18582 9.53468 9.30443 9.24492 9.13459 9.07729L8.29931 8.25299Z" fill="#3D3D3D"/>
<path d="M3.83106 7.9286C5.9037 7.9286 7.58991 6.2423 7.58991 4.16956C7.58991 2.09682 5.90371 0.410522 3.83106 0.410522C1.75841 0.410522 0.0722393 2.09682 0.0722393 4.16956C0.0722393 5.08207 0.395249 5.9451 0.987213 6.6279L0.151938 7.45221C-0.0173526 7.61931 0.0999187 7.90958 0.338819 7.91074C0.340658 7.91076 3.82924 7.9286 3.83106 7.9286ZM2.23289 2.83917H5.44709C5.59503 2.83917 5.71494 2.9591 5.71494 3.10703C5.71494 3.25496 5.59503 3.3749 5.44709 3.3749H2.23289C2.08496 3.3749 1.96504 3.25496 1.96504 3.10703C1.96504 2.9591 2.08498 2.83917 2.23289 2.83917ZM2.23289 3.91063H5.44709C5.59503 3.91063 5.71494 4.03056 5.71494 4.17849C5.71494 4.32642 5.59503 4.44636 5.44709 4.44636H2.23289C2.08496 4.44636 1.96504 4.32642 1.96504 4.17849C1.96504 4.03056 2.08498 3.91063 2.23289 3.91063ZM1.96504 5.24995C1.96504 5.10202 2.08496 4.98209 2.23289 4.98209H5.44709C5.59503 4.98209 5.71494 5.10202 5.71494 5.24995C5.71494 5.39788 5.59503 5.51782 5.44709 5.51782H2.23289C2.08498 5.51782 1.96504 5.39788 1.96504 5.24995Z" fill="#3D3D3D"/>
</svg>
