<svg width="33" height="33" viewBox="0 0 33 33" fill="none" xmlns="http://www.w3.org/2000/svg">
<g clip-path="url(#clip0_626_5950)">
<path d="M32.6603 16.6732C32.6603 7.75033 25.4121 0.518555 16.469 0.518555C7.52596 0.518555 0.277832 7.75033 0.277832 16.6732C0.277832 24.738 6.19774 31.4207 13.9392 32.6323V21.3429H9.82808V16.6732H13.9392V13.1142C13.9392 9.066 16.3552 6.82898 20.0551 6.82898C21.826 6.82898 23.6792 7.1445 23.6792 7.1445V11.1201H21.6363C19.6251 11.1201 18.9989 12.3664 18.9989 13.6442V16.6732H23.4894L22.7716 21.3429H18.9989V32.6323C26.7403 31.4207 32.6603 24.738 32.6603 16.6732Z" fill="white"/>
</g>
<defs>
<clipPath id="clip0_626_5950">
<rect width="32.3824" height="32.3094" fill="white" transform="translate(0.277832 0.518555)"/>
</clipPath>
</defs>
</svg>
