<svg width="12" height="7" viewBox="0 0 12 7" fill="none" xmlns="http://www.w3.org/2000/svg">
<path d="M11.156 0.872271L10.8032 0.51704C10.6922 0.406102 10.5445 0.344985 10.3866 0.344985C10.2288 0.344985 10.0809 0.406102 9.96991 0.51704L5.94565 4.54147L1.91675 0.512575C1.8059 0.401636 1.65802 0.340607 1.50023 0.340607C1.34245 0.340607 1.19447 0.401636 1.08353 0.512575L0.730668 0.865616C0.50091 1.0952 0.50091 1.46917 0.730668 1.69875L5.52755 6.51288C5.6384 6.62373 5.78612 6.70184 5.9453 6.70184H5.94714C6.10501 6.70184 6.25272 6.62365 6.36357 6.51288L11.156 1.7118C11.267 1.60094 11.328 1.44877 11.3281 1.29098C11.3281 1.13311 11.267 0.983034 11.156 0.872271Z" fill="white"/>
</svg>
