<svg width="33" height="33" viewBox="0 0 33 33" fill="none" xmlns="http://www.w3.org/2000/svg">
<g clip-path="url(#clip0_626_5953)">
<path fill-rule="evenodd" clip-rule="evenodd" d="M16.3611 0.518555C7.419 0.518555 0.169922 7.75128 0.169922 16.6732C0.169922 25.5952 7.419 32.8279 16.3611 32.8279C25.3033 32.8279 32.5523 25.5952 32.5523 16.6732C32.5523 7.75128 25.3033 0.518555 16.3611 0.518555ZM12.8028 8.10929C13.7239 8.06749 14.0183 8.05725 16.3635 8.05725H16.3608C18.7068 8.05725 19 8.06749 19.9211 8.10929C20.8404 8.15129 21.4683 8.29648 22.0188 8.50959C22.5873 8.72942 23.0676 9.02384 23.5479 9.5031C24.0283 9.98195 24.3234 10.4627 24.5446 11.0294C24.757 11.5772 24.9027 12.2033 24.9459 13.1205C24.9872 14.0395 24.998 14.3332 24.998 16.6732C24.998 19.0131 24.9872 19.306 24.9459 20.225C24.9027 21.1419 24.757 21.7682 24.5446 22.3162C24.3234 22.8827 24.0283 23.3634 23.5479 23.8423C23.0681 24.3216 22.5871 24.6167 22.0193 24.8367C21.4699 25.0498 20.8416 25.195 19.9223 25.237C19.0012 25.2788 18.7078 25.289 16.3624 25.289C14.0174 25.289 13.7233 25.2788 12.8021 25.237C11.883 25.195 11.2553 25.0498 10.7059 24.8367C10.1382 24.6167 9.65649 24.3216 9.17669 23.8423C8.69649 23.3634 8.40147 22.8827 8.18073 22.316C7.96734 21.7682 7.82182 21.1421 7.77952 20.2249C7.73783 19.3058 7.72738 19.0131 7.72738 16.6732C7.72738 14.3332 7.73817 14.0393 7.77939 13.1203C7.82074 12.2034 7.96647 11.5772 8.18053 11.0292C8.40181 10.4627 8.69689 9.98195 9.17723 9.5031C9.65723 9.02398 10.139 8.72963 10.707 8.50959C11.256 8.29648 11.8835 8.15129 12.8028 8.10929ZM16.0757 9.60979H16.0755C15.901 9.60972 15.7392 9.60965 15.5888 9.60985V9.6077C13.9794 9.60952 13.6707 9.62029 12.8741 9.65616C12.0321 9.6948 11.575 9.83481 11.2706 9.95328C10.8676 10.1098 10.5797 10.2965 10.2775 10.598C9.97526 10.8996 9.78784 11.1868 9.63133 11.5889C9.51313 11.8926 9.3724 12.3485 9.33395 13.1885C9.29253 14.0968 9.2843 14.3682 9.2843 16.669C9.2843 18.9698 9.29253 19.2427 9.33395 20.1509C9.37227 20.991 9.51313 21.4469 9.63133 21.7502C9.78818 22.1525 9.97526 22.439 10.2775 22.7405C10.5797 23.0421 10.8676 23.2288 11.2706 23.385C11.5751 23.5029 12.0321 23.6432 12.8741 23.682C13.7844 23.7233 14.0577 23.7323 16.3635 23.7323C18.6691 23.7323 18.9426 23.7233 19.8529 23.682C20.6948 23.6436 21.1522 23.5036 21.4562 23.3852C21.8594 23.229 22.1463 23.0423 22.4486 22.7407C22.7508 22.4394 22.9383 22.153 23.0948 21.751C23.213 21.4476 23.3536 20.9917 23.3922 20.1517C23.4335 19.2434 23.4426 18.9705 23.4426 16.6712C23.4426 14.3718 23.4335 14.099 23.3922 13.1907C23.3538 12.3506 23.213 11.8947 23.0948 11.5914C22.9379 11.1893 22.7508 10.9021 22.4486 10.6005C22.1465 10.299 21.8592 10.1123 21.4562 9.9561C21.1518 9.83817 20.6948 9.69783 19.8529 9.6594C18.9424 9.61813 18.6691 9.60985 16.3635 9.60985L16.0757 9.60979ZM20.973 11.0405C20.4009 11.0405 19.9368 11.503 19.9368 12.074C19.9368 12.6448 20.4009 13.1079 20.973 13.1079C21.5451 13.1079 22.0092 12.6448 22.0092 12.074C22.0092 11.5033 21.5451 11.0401 20.973 11.0401V11.0405ZM11.9289 16.6732C11.9289 14.2297 13.9144 12.2486 16.3633 12.2485C18.8123 12.2485 20.7974 14.2296 20.7974 16.6732C20.7974 19.1167 18.8126 21.0969 16.3635 21.0969C13.9144 21.0969 11.9289 19.1167 11.9289 16.6732ZM16.3635 13.8012C17.9531 13.8012 19.242 15.0869 19.242 16.6732C19.242 18.2592 17.9531 19.5451 16.3635 19.5451C14.7737 19.5451 13.485 18.2592 13.485 16.6732C13.485 15.0869 14.7737 13.8012 16.3635 13.8012Z" fill="white"/>
</g>
<defs>
<clipPath id="clip0_626_5953">
<rect width="32.3824" height="32.3094" fill="white" transform="translate(0.170898 0.518555)"/>
</clipPath>
</defs>
</svg>
