<svg width="33" height="33" viewBox="0 0 33 33" fill="none" xmlns="http://www.w3.org/2000/svg">
<g clip-path="url(#clip0_626_5957)">
<path fill-rule="evenodd" clip-rule="evenodd" d="M16.4119 0.518555C7.46978 0.518555 0.220703 7.75128 0.220703 16.6732C0.220703 25.5952 7.46978 32.8279 16.4119 32.8279C25.3541 32.8279 32.6031 25.5952 32.6031 16.6732C32.6031 7.75128 25.3541 0.518555 16.4119 0.518555ZM9.82854 12.3971C11.1079 12.3971 11.9048 11.552 11.9048 10.4958C11.881 9.41731 11.1079 8.59585 9.85269 8.59585C8.59747 8.59585 7.77684 9.41731 7.77684 10.4958C7.77684 11.552 8.57325 12.3971 9.80506 12.3971H9.82854ZM11.6631 24.8983V13.8985H7.99381V24.8983H11.6631ZM24.896 18.5914L24.8958 24.8983H21.2267V19.0134C21.2267 17.5352 20.6957 16.5266 19.3674 16.5266C18.3537 16.5266 17.7499 17.2066 17.4847 17.8633C17.3877 18.0987 17.3639 18.4266 17.3639 18.7554V24.8986H13.6941C13.6941 24.8986 13.7425 14.931 13.6941 13.8988H17.3639V15.4568C17.8508 14.7078 18.723 13.6402 20.6712 13.6402C23.0858 13.6402 24.896 15.2127 24.896 18.5914Z" fill="white"/>
</g>
<defs>
<clipPath id="clip0_626_5957">
<rect width="32.3824" height="32.3094" fill="white" transform="translate(0.220703 0.518555)"/>
</clipPath>
</defs>
</svg>
