<svg width="108" height="108" viewBox="0 0 108 108" fill="none" xmlns="http://www.w3.org/2000/svg">
<g clip-path="url(#clip0_626_5973)">
<path d="M107.916 54.0401V54.1748C107.914 55.0516 107.891 55.9225 107.847 56.7869C107.845 56.8461 107.842 56.9053 107.838 56.9636C107.754 58.5264 107.605 60.0711 107.39 61.5937C103.86 86.7384 82.9645 106.311 57.2199 107.796C56.1772 107.858 55.1255 107.889 54.0672 107.889C53.5668 107.889 53.0705 107.882 52.5734 107.868C52.0525 107.853 51.5348 107.832 51.0172 107.803C50.7624 107.79 50.5077 107.773 50.2538 107.757C48.9112 107.662 47.5842 107.518 46.272 107.327C45.8867 107.27 45.5021 107.212 45.1209 107.146C45.1167 107.146 45.1151 107.145 45.111 107.145C45.1044 107.142 45.0978 107.142 45.0913 107.142C44.862 107.103 44.6328 107.062 44.406 107.021C44.042 106.955 43.6805 106.886 43.3181 106.812C18.7288 101.833 0.218262 80.0977 0.218262 54.0401C0.218262 24.3014 24.3285 0.191162 54.0672 0.191162C78.6614 0.191162 99.4036 16.678 105.846 39.204C106.368 41.0257 106.795 42.8851 107.123 44.7807C107.335 46.0132 107.508 47.2605 107.637 48.5209C107.643 48.5924 107.651 48.6614 107.657 48.7329C107.742 49.5866 107.804 50.4494 107.849 51.3163C107.893 52.2185 107.916 53.1272 107.916 54.0401Z" fill="#5C6B99"/>
<path d="M107.918 54.1746C107.915 55.0513 107.892 55.9223 107.849 56.7867C107.846 56.8458 107.844 56.905 107.84 56.9633C107.756 58.5262 107.606 60.0709 107.392 61.5934C103.862 86.7382 82.9661 106.311 57.2216 107.796C56.1789 107.858 55.1271 107.889 54.0688 107.889C53.5684 107.889 53.0721 107.882 52.575 107.867C52.0541 107.853 51.5364 107.832 51.0188 107.802L27.7754 84.6158L77.207 23.4639L107.918 54.1746Z" fill="#455373"/>
<path d="M27.7754 53.064H80.3622V84.6161H27.7754V53.064Z" fill="#D4B93F"/>
<path d="M54.0679 53.064H80.3613V84.6161H54.0679V53.064Z" fill="#CC9202"/>
<path d="M30.9302 23.4639H77.2066V78.1542H30.9302V23.4639Z" fill="white"/>
<path d="M54.0679 23.4639H77.2061V78.1542H54.0679V23.4639Z" fill="#EBEBEB"/>
<path d="M38.292 51.2297H69.8441V56.4884H38.292V51.2297Z" fill="#C0DAFB"/>
<path d="M38.292 41.7642H69.8441V47.0228H38.292V41.7642Z" fill="#C0DAFB"/>
<path d="M54.0679 51.2297H69.8439V56.4884H54.0679V51.2297Z" fill="#A0B9D8"/>
<path d="M54.0679 41.7642H69.8439V47.0228H54.0679V41.7642Z" fill="#A0B9D8"/>
<path d="M54.0688 68.84L27.7754 53.064V84.6161H80.3622V53.064L54.0688 68.84Z" fill="#FFDF4C"/>
<path d="M54.0679 68.84V84.6161H80.3613V53.064L54.0679 68.84Z" fill="#D4B93F"/>
<path d="M44.6209 37.2814H43.0187L39.8996 32.1649V37.2814H38.2974V29.5051H39.8996L43.0244 34.6323V29.5051H44.6209V37.2814Z" fill="#FF6680"/>
<path d="M51.5209 33.911H48.4445V35.9939H52.055V37.2807H46.8423V29.5044H52.0435V30.8026H48.4445V32.6563H51.5209V33.911Z" fill="#FF6680"/>
<path d="M59.8706 35.038L60.9174 29.5049H62.5148L60.7893 37.2812H59.1763L57.9109 32.0792L56.6448 37.2812H55.0318L53.3071 29.5049H54.9036L55.9562 35.0273L57.238 29.5049H58.5946L59.8706 35.038Z" fill="#FF6680"/>
<path d="M68.2304 35.2411C68.2304 34.9379 68.1235 34.7062 67.9099 34.5435C67.6971 34.3816 67.3117 34.2107 66.7563 34.0308C66.2017 33.8508 65.7612 33.6742 65.4375 33.5C64.5542 33.0226 64.113 32.38 64.113 31.5715C64.113 31.1516 64.2313 30.777 64.4679 30.4475C64.7046 30.118 65.0447 29.8608 65.4884 29.6759C65.9313 29.4902 66.4293 29.3982 66.9814 29.3982C67.5369 29.3982 68.0315 29.4984 68.4662 29.6997C68.9 29.9011 69.2377 30.1854 69.4785 30.5518C69.7184 30.9183 69.8384 31.3349 69.8384 31.8016H68.2361C68.2361 31.4458 68.1244 31.1681 67.9 30.9709C67.6757 30.7737 67.3602 30.6742 66.9543 30.6742C66.5632 30.6742 66.2584 30.7572 66.0414 30.9232C65.8237 31.0884 65.7152 31.3069 65.7152 31.5773C65.7152 31.8295 65.8426 32.0415 66.0973 32.2124C66.352 32.3833 66.7267 32.5435 67.2214 32.6931C68.1326 32.9675 68.7973 33.3077 69.2139 33.7136C69.6305 34.1195 69.8384 34.6248 69.8384 35.2304C69.8384 35.9034 69.5845 36.4309 69.075 36.8138C68.5656 37.1967 67.8803 37.3881 67.0184 37.3881C66.4202 37.3881 65.8755 37.278 65.3841 37.0594C64.8927 36.8401 64.5181 36.5401 64.2601 36.1589C64.002 35.7785 63.873 35.3372 63.873 34.8344H65.4802C65.4802 35.693 65.993 36.1219 67.0184 36.1219C67.3997 36.1219 67.6971 36.0447 67.9107 35.8894C68.1244 35.7349 68.2304 35.5188 68.2304 35.2411Z" fill="#D14960"/>
<path d="M60.9165 29.5051L59.8697 35.0382L58.5928 29.5051H57.2362L55.9544 35.0276L54.9027 29.5051H54.0679V32.9405L55.0309 37.2814H56.6438L57.9092 32.0794L59.1754 37.2814H60.7883L62.513 29.5051H60.9165Z" fill="#D14960"/>
</g>
<defs>
<clipPath id="clip0_626_5973">
<rect width="107.698" height="107.698" fill="white" transform="translate(0.218262 0.191162)"/>
</clipPath>
</defs>
</svg>
