<svg width="44" height="45" viewBox="0 0 44 45" fill="none" xmlns="http://www.w3.org/2000/svg">
<path fill-rule="evenodd" clip-rule="evenodd" d="M22.1426 44.8323C34.0386 44.8323 43.6822 34.8899 43.6822 22.6254C43.6822 10.3608 34.0386 0.418457 22.1426 0.418457C10.2466 0.418457 0.603027 10.3608 0.603027 22.6254C0.603027 34.8899 10.2466 44.8323 22.1426 44.8323ZM14.7377 23.319C14.3662 23.319 14.0646 23.0081 14.0646 22.6251C14.0646 22.242 14.3662 21.9311 14.7377 21.9311H28.1875L23.0241 16.8818C22.7548 16.6174 22.744 16.1781 23.0008 15.9009C23.2573 15.6236 23.683 15.6125 23.9523 15.8769L29.8131 21.632C30.0793 21.9058 30.2193 22.2545 30.2193 22.6251C30.2193 22.996 30.0793 23.3444 29.8248 23.6067L23.9523 29.3736C23.683 29.638 23.2573 29.6272 23.0008 29.3496C22.744 29.0713 22.7551 28.6324 23.0241 28.3683L28.166 23.319H14.7377Z" fill="white"/>
</svg>
