<svg width="11" height="12" viewBox="0 0 11 12" fill="none" xmlns="http://www.w3.org/2000/svg">
<path d="M5.2655 0.496582C3.67033 0.496582 2.37256 1.79436 2.37256 3.38952C2.37256 4.98469 3.67033 6.28247 5.2655 6.28247C6.86067 6.28247 8.15844 4.98469 8.15844 3.38952C8.15844 1.79436 6.86067 0.496582 5.2655 0.496582Z" fill="#696969"/>
<path d="M8.86528 8.17249C8.07326 7.36829 7.02329 6.92542 5.90878 6.92542H4.62303C3.50854 6.92542 2.45855 7.36829 1.66653 8.17249C0.878384 8.97274 0.444336 10.0291 0.444336 11.147C0.444336 11.3245 0.588254 11.4684 0.765774 11.4684H9.76604C9.94356 11.4684 10.0875 11.3245 10.0875 11.147C10.0875 10.0291 9.65343 8.97274 8.86528 8.17249Z" fill="#696969"/>
</svg>
