<svg width="37" height="38" viewBox="0 0 37 38" fill="none" xmlns="http://www.w3.org/2000/svg">
<circle cx="18.4969" cy="19.2253" r="18.2863" fill="#1B8036"/>
<path d="M22.7583 21.8475C24.9534 18.7478 24.2192 14.4558 21.1196 12.2612C18.02 10.0667 13.7279 10.8003 11.5334 13.9004C9.33883 17.0001 10.0724 21.2916 13.1726 23.4862C15.385 25.0525 18.31 25.1731 20.6435 23.795L25.7137 28.8349C26.2612 29.4112 27.172 29.4342 27.7483 28.8868C28.3246 28.3398 28.3477 27.429 27.8008 26.8527C27.7835 26.8343 27.7667 26.8176 27.7483 26.8003L22.7583 21.8475ZM17.1416 22.3173C14.6923 22.3178 12.7064 20.3336 12.7048 17.8842C12.7043 15.4348 14.6886 13.4489 17.1385 13.4479C19.5847 13.4468 21.5695 15.428 21.5743 17.8742C21.5785 20.3241 19.5952 22.3131 17.1448 22.3173C17.1437 22.3173 17.1432 22.3173 17.1416 22.3173Z" fill="white"/>
</svg>
