<svg width="33" height="33" viewBox="0 0 33 33" fill="none" xmlns="http://www.w3.org/2000/svg">
<path fill-rule="evenodd" clip-rule="evenodd" d="M16.4197 0.518555C7.47759 0.518555 0.228516 7.75128 0.228516 16.6732C0.228516 25.5952 7.47759 32.8279 16.4197 32.8279C25.3619 32.8279 32.6109 25.5952 32.6109 16.6732C32.6109 7.75128 25.3619 0.518555 16.4197 0.518555ZM15.969 14.2086L15.935 13.6496C15.833 12.2008 16.7277 10.8775 18.1434 10.3641C18.6644 10.1816 19.5478 10.1588 20.1254 10.3185C20.3519 10.3869 20.7823 10.6151 21.088 10.8204L21.643 11.1969L22.2545 11.003C22.5943 10.9003 23.0474 10.7292 23.2512 10.6151C23.4437 10.5124 23.6136 10.4554 23.6136 10.4896C23.6136 10.6835 23.1946 11.3452 22.8435 11.7103C22.3678 12.2236 22.5037 12.2692 23.4664 11.927C24.044 11.7331 24.0553 11.7331 23.9421 11.9498C23.874 12.0639 23.523 12.4632 23.1492 12.8283C22.515 13.4557 22.4811 13.5241 22.4811 14.0489C22.4811 14.8588 22.096 16.5472 21.7109 17.4712C20.9974 19.2052 19.4685 20.9963 17.9396 21.8976C15.7878 23.1638 12.9224 23.4832 10.5101 22.7417C9.70599 22.4908 8.32428 21.8519 8.32428 21.7378C8.32428 21.7036 8.74329 21.658 9.25298 21.6466C10.3175 21.6237 11.3821 21.3272 12.2882 20.8023L12.8998 20.4373L12.1976 20.1978C11.2009 19.8555 10.3062 19.0683 10.0797 18.3268C10.0117 18.0873 10.0344 18.0759 10.6686 18.0759L11.3255 18.0645L10.7706 17.8021C10.1137 17.4712 9.51345 16.9123 9.21897 16.3419C9.00383 15.9312 8.73202 14.8931 8.81129 14.8132C8.83389 14.779 9.07177 14.8475 9.34358 14.9387C10.125 15.2239 10.2269 15.1555 9.77393 14.6763C8.9245 13.8093 8.66402 12.5202 9.07177 11.2996L9.26431 10.752L10.0117 11.4935C11.5407 12.9879 13.3415 13.8778 15.4027 14.1401L15.969 14.2086Z" fill="white"/>
</svg>
